<?xml version="1.0" encoding="iso-8859-1"?>
<!-- Generator: Adobe Illustrator 19.0.0, SVG Export Plug-In . SVG Version: 6.00 Build 0)  -->
<svg version="1.1" id="Capa_1" xmlns="http://www.w3.org/2000/svg" xmlns:xlink="http://www.w3.org/1999/xlink" x="0px" y="0px"
	 viewBox="0 0 354.086 354.086" style="enable-background:new 0 0 354.086 354.086;" xml:space="preserve">
<path style="fill:#FFEACC;" d="M177.243,339.636c-75.2,0-139.6-52.8-156.8-128.8l-1.2-5.2h14.8l1.2,2.4c4,9.2,13.2,15.2,23.2,15.6
	h88.4c1.2,0,2.4-1.2,2.4-2.4l0,0v-6.4c-0.4-15.6,12.4-28.8,28-28.8c7.2,0,14.4,3.2,19.6,8.4c8,8.4,8,16.8,8,26v0.4
	c0,1.2,1.2,2.4,2.4,2.4l0,0h88.4c7.6,0,14.8-3.6,19.6-9.6l5.2-8.4h14.4l-1.2,5.2C316.443,286.436,252.043,339.636,177.243,339.636z"
	/>
<path style="fill:#F6D4A4;" d="M19.243,205.636c16.8,85.6,83.6,136.8,158,136.8v-171.2c-12.4,0-24,12-24,29.2v7.6
	c0.4,4-2.8,7.6-6.8,8h-90c-12,0-16.4,4.4-21.6-8L19.243,205.636z"/>
<path style="fill:#F16A73;" d="M133.643,254.436c6,40,49.2,56,74.8,26.8c6.4-7.6,10.8-16.8,12.4-26.8H133.643z"/>
<path style="fill:#59C4C6;" d="M209.243,220.436v-4c0-8.4-3.6-16.8-9.6-22.8s-14-9.6-22.4-9.6c-17.6,0-32.4,14.4-32.8,32v4h-84.4
	c-11.2,0-20.4-9.2-20.4-20.4v-79.2c0-11.2,9.2-20.4,20.4-20.4h233.6c11.2,0,20.4,9.2,20.4,20.4l0,0v79.6c0,11.2-9.2,20.4-20.4,20.4
	H209.243z"/>
<g>
	<path style="fill:#9E8180;" d="M319.243,203.636v-86.4h12.4c7.6,0,13.6,6,13.6,13.6l0,0v59.2c0,7.6-6,13.6-13.2,13.6
		L319.243,203.636L319.243,203.636z"/>
	<path style="fill:#9E8180;" d="M22.443,203.636c-7.6,0-13.6-6-13.6-13.6l0,0v-59.2c0-3.6,1.6-7.2,4-9.6c3.2-2.8,7.6-4.4,12-4h10
		v86.4H22.443z"/>
</g>
<path style="fill:#FFEACC;" d="M304.843,97.636l-11.6-2.4h-233.2c-4.4,0-16.4,8-20.4,10l2.8-12.4c12-19.2,28-35.6,46.8-48
	c72.8-48.4,171.2-28.8,220,44c0.8,1.2,1.6,2.4,2.4,4l7.6,12.4L304.843,97.636z"/>
<path style="fill:#F6D4A4;" d="M47.643,98.436l129.2-2.8v-81.2h-3.6c-32,0.8-63.2,11.6-88.8,30.4c-20.4,14.8-37.2,33.6-49.6,55.2
	C39.643,97.236,42.043,98.436,47.643,98.436z"/>
<g>
	<path style="fill:#FFFFFF;" d="M96.043,135.236c3.6,0,6.4-2.8,6.4-6.4c0-3.6-2.8-6.4-6.4-6.4h-31.6c-3.6,0-6.4,2.8-6.4,6.4
		c0,3.6,2.8,6.4,6.4,6.4H96.043z"/>
	<path style="fill:#FFFFFF;" d="M122.043,122.436c-3.6,0-6.4,2.8-6.4,6.4c0,3.6,2.8,6.4,6.4,6.4h31.6c3.6,0,6.4-2.8,6.4-6.4
		c0-3.6-2.8-6.4-6.4-6.4H122.043z"/>
</g>
<g>
	<path style="fill:#351713;" d="M64.443,135.236h31.6c3.6,0,6.4-2.8,6.4-6.4c0-3.6-2.8-6.4-6.4-6.4h-31.6c-3.6,0-6.4,2.8-6.4,6.4
		C58.043,132.436,60.843,135.236,64.443,135.236z"/>
	<path style="fill:#351713;" d="M177.243,303.236c27.6,0,49.6-22.4,49.6-49.6v-6.4h-99.6v6.4
		C127.243,281.236,149.643,303.236,177.243,303.236C176.843,303.236,176.843,303.236,177.243,303.236z M177.243,260.036h36.4
		c-3.6,20-22.8,33.6-42.8,30c-15.2-2.8-27.2-14.8-30-30H177.243z"/>
	<path style="fill:#351713;" d="M69.643,305.636c71.2,59.2,176.8,49.6,236-21.2c17.6-21.2,30-46.8,35.6-74c2.4-1.2,4.4-2.4,6.4-4.4
		l0,0c4.4-4.4,6.8-10,6.4-16v-59.2c0-12.4-10-22.4-22.4-22.4h-1.6c-38-84.4-137.2-122-221.6-84c-37.2,16.8-67.2,46.8-84,84h-2
		c-6,0-11.6,2.4-16,6.8l0,0c-4.4,4.4-6.8,10-6.4,16v59.2c0,8.8,5.2,16.4,12.8,20.4C20.443,247.636,40.443,281.236,69.643,305.636z
		 M323.243,121.236h8.4c5.2,0,9.6,4.4,9.6,9.6v59.2c0,2.4-0.8,5.2-2.8,6.8l0,0c-1.6,1.6-4,2.8-6.8,2.8h-8.8v-78.4H323.243z
		 M91.643,48.036c70.8-47.2,166.8-28,214.4,43.2c0.8,1.2,1.6,2.4,2.4,3.6c-4.4-2.8-9.2-4.4-14.4-4h-234c-5.2,0-10,1.2-14.4,4
		C57.643,76.436,73.243,60.436,91.643,48.036z M43.643,120.436c0-9.2,7.2-16.4,16.4-16.4h233.6c9.2,0,16.4,7.2,16.8,16.4v79.6
		c0,9.2-7.2,16.4-16.4,16.4h-80.8c-0.4-20-16.4-36-36.4-36l0,0c-20,0-36,16-36.4,36h-80.4c-9.2,0-16.4-7.2-16.4-16.4V120.436z
		 M39.643,220.836c5.6,5.6,12.8,8.8,20.8,8.8h86.8c3.6,0,6.4-2.8,6.4-6.4l0,0v-6.4c0-12.8,10.4-23.6,23.6-23.6l0,0
		c12.8,0,23.2,10.4,23.6,23.6v6.4c0,3.6,2.8,6.4,6.4,6.4h86.8c7.6,0,15.2-2.8,20.8-8.8c2.4-2.4,4.4-5.2,6-8.4h7.2
		c-19.6,83.2-103.2,134.4-186,114.8c-57.6-13.2-102.4-57.6-115.6-114.8h7.2C34.843,215.636,36.843,218.436,39.643,220.836z
		 M12.843,130.836c0-5.2,4.4-9.6,9.6-9.6l0,0h8.4v78.4h-8.4c-5.2,0-9.2-4.4-9.6-9.6V130.836z"/>
	<path style="fill:#351713;" d="M122.043,135.236h31.6c3.6,0,6.4-2.8,6.4-6.4c0-3.6-2.8-6.4-6.4-6.4h-31.6c-3.6,0-6.4,2.8-6.4,6.4
		C115.643,132.436,118.843,135.236,122.043,135.236z"/>
</g>
<g>
</g>
<g>
</g>
<g>
</g>
<g>
</g>
<g>
</g>
<g>
</g>
<g>
</g>
<g>
</g>
<g>
</g>
<g>
</g>
<g>
</g>
<g>
</g>
<g>
</g>
<g>
</g>
<g>
</g>
</svg>
